<svg xmlns="http://www.w3.org/2000/svg" viewBox="0 0 100 100"><path d="M107.351,52.19c-3.543-.594-6.344-2.294-11.869-7.2-6.945-6.17-9.33-7.511-19.78-11.116-7.186-2.479-10.242-4.52-12.028-8.032-1.636-3.217-1.71-5.956-.386-14.366a45.419,45.419,0,0,0,.79-9.125A54.435,54.435,0,0,0,63.043-9.039c-1.219-7.494-.888-10.564,1.5-13.923,1.756-2.467,4.526-4.02,11.488-6.437a64.953,64.953,0,0,0,12.378-5.479c2.473-1.537,3.656-2.472,8.114-6.417,4.687-4.146,6.921-5.442,10.56-6.123a15.766,15.766,0,0,1,12.294,2.9c.717.523,2.664,2.158,4.326,3.632s3.621,3.177,4.353,3.783c3.013,2.5,7.36,4.713,13.644,6.956,2.135.762,4.758,1.725,5.828,2.139,5.4,2.089,8.131,4.561,9.4,8.5.681,2.114.542,5.711-.46,11.865a45.1,45.1,0,0,0-.865,9.471c-.02,4.338.116,5.689,1.207,12.177.577,3.43.679,7.738.225,9.471-1.011,3.853-3.9,6.762-8.787,8.852-.856.366-3.054,1.188-4.884,1.828a73.4,73.4,0,0,0-8.63,3.4c-3.63,1.7-5.874,3.256-10.366,7.19-2.241,1.963-4.571,3.936-5.176,4.386a21.577,21.577,0,0,1-5.669,2.737,18.632,18.632,0,0,1-6.175.319Zm4.3-3.13a15.527,15.527,0,0,0,5.031-2.022c.53-.342,2.758-2.191,4.95-4.108,7.169-6.268,9.768-7.772,19.405-11.227,7.327-2.627,9.333-3.665,11.069-5.725,1.509-1.79,1.879-3.006,1.874-6.144a37.868,37.868,0,0,0-.863-7.494,39.333,39.333,0,0,1-.859-10.2,41.055,41.055,0,0,1,.825-10.193c1.333-7.707,1.319-9.609-.087-12.223-1.426-2.651-3.434-3.815-11.4-6.615-9.743-3.423-12.667-5.075-19.222-10.863-6.4-5.647-8.327-6.693-12.393-6.707-4.108-.015-6.176,1.057-12.233,6.337-4.472,3.9-6.214,5.207-9.091,6.824a57.4,57.4,0,0,1-10.513,4.4c-6.01,2.03-8.113,3-9.677,4.478-2.981,2.811-3.409,5.5-2.074,13.013,1.654,9.314,1.652,12.8-.016,22.722-.784,4.66-.891,6.6-.479,8.633.953,4.708,3.327,6.525,12.69,9.713C87.534,34.7,91.014,36.7,97.665,42.633c1.952,1.741,4.049,3.52,4.659,3.953a15.265,15.265,0,0,0,5.268,2.385,8.737,8.737,0,0,0,4.059.089Z" transform="translate(-62.352 47.682)" fill="#0daafa"/><path d="M101.6,34.248c-2.9-.47-4.875-1.607-9.172-5.284-5.54-4.741-8.291-6.373-14.753-8.753-6.134-2.26-8.043-3.411-9.487-5.724-1.341-2.147-1.54-4.387-.844-9.47a56.75,56.75,0,0,0,.014-18.721c-.244-1.825-.443-3.842-.443-4.484A9.309,9.309,0,0,1,71.8-26.213a58.046,58.046,0,0,1,5.46-2.3c6.662-2.5,9.362-4.08,14.624-8.538,3.336-2.827,4.724-3.828,6.418-4.629a9.8,9.8,0,0,1,5.383-1.038,8.134,8.134,0,0,1,3.6.806,28.874,28.874,0,0,1,6.991,4.779c5.242,4.531,7.822,6.026,15.029,8.716,5.66,2.112,7.362,3.2,8.879,5.658,1.373,2.227,1.528,3.953.818,9.086A64.963,64.963,0,0,0,139.013,5c.688,4.787.561,6.826-.557,8.915-1.431,2.673-3.236,3.9-8.835,5.981-7.917,2.949-9.847,4.08-16.431,9.627-4.652,3.919-8.045,5.3-11.593,4.729Zm5.176-3.919a30.552,30.552,0,0,0,4.1-2.982c6.9-5.784,9.271-7.172,17.71-10.345,3.838-1.443,5.573-2.425,6.467-3.66,1.2-1.663,1.307-2.989.619-7.947a67.12,67.12,0,0,1,0-19.277c.547-3.945.564-4.935.108-6.375a6.816,6.816,0,0,0-3.078-3.452c-.5-.27-2.7-1.16-4.894-1.979a45.947,45.947,0,0,1-16.154-9.426c-4.382-3.715-6.372-4.691-9.1-4.459-2.182.186-4.032,1.2-7.472,4.107-6.393,5.4-9.351,7.106-17.66,10.195-1.477.549-3.005,1.154-3.4,1.343a7.929,7.929,0,0,0-3.087,2.91c-.534.95-.591,1.26-.572,3.136a54.762,54.762,0,0,0,.53,5.62,59.714,59.714,0,0,1-.1,16.652c-.815,5.889-.693,7.3.8,9.294.735.981,2.712,2.006,7.133,3.7,2.381.911,4.929,1.94,5.662,2.287a53.6,53.6,0,0,1,8.662,5.676c4.583,3.832,5.308,4.374,6.8,5.087a5.213,5.213,0,0,0,3.55.662,6.278,6.278,0,0,0,3.366-.767Z" transform="translate(-55.67 54.173)" fill="#0daafa"/><path d="M94.7,15.538c-1.537-.388-2.141-.741-5.823-3.407A55.407,55.407,0,0,0,78.427,6.086a31.526,31.526,0,0,1-4.788-2.7c-1.654-1.506-2.406-3.858-2.167-6.775.578-7.047.6-7.961.314-11.553-.515-6.425-.381-7.643,1.057-9.6.8-1.083,2.111-1.894,6.061-3.74a52.752,52.752,0,0,0,10.082-5.992c2.98-2.2,3.667-2.6,5.233-3.027a8.276,8.276,0,0,1,4.341-.05c1.608.4,2.275.772,5.353,2.968a59.252,59.252,0,0,0,10.724,6.315c7.032,3.329,7.465,4.2,6.7,13.441a37.388,37.388,0,0,0,.078,8.014,50.763,50.763,0,0,1,.236,5.719A7.539,7.539,0,0,1,119.24,3.7,41.947,41.947,0,0,1,114.2,6.392,56.993,56.993,0,0,0,104,12.317c-2.893,2.129-3.946,2.749-5.378,3.167a6.1,6.1,0,0,1-3.922.054Zm3.326-3.107a22.637,22.637,0,0,0,3.816-2.384A54.8,54.8,0,0,1,112.446,3.88c4.165-1.946,4.847-2.408,5.544-3.758.474-.919.486-1.082.3-4a137.1,137.1,0,0,1-.006-14.4c.329-4.382.1-4.655-6.467-7.778a45.047,45.047,0,0,1-8.362-4.825c-4.406-3.089-5.422-3.62-6.919-3.614s-2.438.465-5.628,2.735a52.071,52.071,0,0,1-10.2,6C76.7-23.831,76.09-23.472,75.5-22.674c-.646.866-.672.987-.655,3.018.01,1.164.109,3.568.222,5.342a52.23,52.23,0,0,1,.006,6.141c-.109,1.6-.209,4.052-.222,5.443C74.822-.215,74.826-.2,75.515.7c.607.793,1.268,1.185,5.325,3.157a63.68,63.68,0,0,1,11.239,6.682c3.083,2.23,3.985,2.517,5.944,1.888Z" transform="translate(-49.049 60.909)" fill="#0daafa"/><path d="M88.145-2.448C87.062-2.858,79.7-7.115,78-8.315a5.966,5.966,0,0,1-1.654-1.845l-.621-1.116,0-6.169c.005-6.88.053-7.136,1.57-8.525a107.464,107.464,0,0,1,10.04-6.06,5.1,5.1,0,0,1,2.857-.639,5.3,5.3,0,0,1,2.846.614A83.24,83.24,0,0,1,103.32-25.8c1.443,1.5,1.473,1.67,1.468,8.408-.007,8.2.246,7.716-5.947,11.4C93.4-2.758,92.214-2.207,90.529-2.13a5.754,5.754,0,0,1-2.383-.318Zm3.428-3.036a79.432,79.432,0,0,0,9.17-5.452l.721-.7v-5.779c0-5.685-.009-5.788-.5-6.336a45.243,45.243,0,0,0-4.935-3.106c-5.028-2.888-5.705-3.1-7.413-2.279a95.016,95.016,0,0,0-8.838,5.272l-.721.647v5.7a44.884,44.884,0,0,0,.216,6.077c.285.5,1.628,1.389,5.647,3.742,4.581,2.682,5.064,2.843,6.653,2.22Z" transform="translate(-42.746 67.399)" fill="#0daafa"/><path d="M82.842-15.844a8.21,8.21,0,0,1-3.887-4.01c-1.885-5.752,4.132-11.183,9.343-8.432a8.669,8.669,0,0,1,3.2,3.254,5.256,5.256,0,0,1,.494,2.873,5.511,5.511,0,0,1-.493,2.911,7.73,7.73,0,0,1-3.177,3.262A7.8,7.8,0,0,1,82.842-15.844Z" transform="translate(-37.78 72.19)" fill="#0daafa"/></svg>